<?xml version="1.0" encoding="UTF-8"?>
<svg version="1.1" xmlns="http://www.w3.org/2000/svg" width="540" height="540">
<path d="M0 0 C178.2 0 356.4 0 540 0 C540 178.2 540 356.4 540 540 C361.8 540 183.6 540 0 540 C0 361.8 0 183.6 0 0 Z " fill="#111112" transform="translate(0,0)"/>
<path d="M0 0 C24.42 0 48.84 0 74 0 C74 6.27 74 12.54 74 19 C73 20 73 20 70.98155212 20.12025452 C70.09552811 20.11803391 69.20950409 20.11581329 68.29663086 20.11352539 C67.29566879 20.11344986 66.29470673 20.11337433 65.26341248 20.11329651 C64.1748848 20.10813522 63.08635712 20.10297394 61.96484375 20.09765625 C60.85645645 20.0962413 59.74806915 20.09482635 58.60609436 20.09336853 C55.04986931 20.08775033 51.49370617 20.07519475 47.9375 20.0625 C45.53320403 20.05748734 43.12890708 20.05292403 40.72460938 20.04882812 C34.81636294 20.0386239 28.90825115 20.01905205 23 20 C23 30.23 23 40.46 23 51 C38.18 51 53.36 51 69 51 C69 57.27 69 63.54 69 70 C68 71 68 71 66.17137146 71.12025452 C64.97557213 71.1169236 64.97557213 71.1169236 63.75561523 71.11352539 C62.84211304 71.11340454 61.92861084 71.11328369 60.98742676 71.11315918 C59.53765442 71.10548523 59.53765442 71.10548523 58.05859375 71.09765625 C57.17498169 71.09664917 56.29136963 71.09564209 55.38098145 71.09460449 C52.06647451 71.08935531 48.75198601 71.07539417 45.4375 71.0625 C38.033125 71.041875 30.62875 71.02125 23 71 C23 88.16 23 105.32 23 123 C15.41 123 7.82 123 0 123 C0 82.41 0 41.82 0 0 Z " fill="#FAFAFA" transform="translate(136,237)"/>
<path d="M0 0 C3.70060213 2.7754516 6.75693112 6.15169902 9.5 9.875 C9.5 10.535 9.5 11.195 9.5 11.875 C52.4 11.875 95.3 11.875 139.5 11.875 C139.5 16.165 139.5 20.455 139.5 24.875 C137.48762008 26.88737992 133.435949 26.13200074 130.671875 26.19140625 C129.86292786 26.21223267 129.05398071 26.23305908 128.22052002 26.2545166 C125.56377965 26.32091456 122.90693742 26.37956361 120.25 26.4375 C118.43229144 26.48037779 116.61458311 26.5232652 114.796875 26.56616211 C99.69613206 26.90773612 84.60425962 26.99322939 69.5 26.875 C69.5314209 28.40253906 69.5314209 28.40253906 69.56347656 29.9609375 C69.63634684 33.77019976 69.6819688 37.5794015 69.71972656 41.38916016 C69.73973571 43.0321695 69.76695213 44.67510859 69.80175781 46.31787109 C69.85075305 48.69125788 69.87307504 51.06369649 69.890625 53.4375 C69.91127014 54.16179199 69.93191528 54.88608398 69.95318604 55.63232422 C69.95615083 62.50273704 67.53100345 67.53153448 63.0625 72.6875 C55.8876264 78.8123921 49.75825414 79.02543423 40.6875 78.9375 C39.80384766 78.93298828 38.92019531 78.92847656 38.00976562 78.92382812 C35.83981441 78.91209866 33.66989828 78.89416495 31.5 78.875 C31.5 74.255 31.5 69.635 31.5 64.875 C32.82515625 64.81441406 34.1503125 64.75382812 35.515625 64.69140625 C37.26042682 64.60698036 39.00521795 64.52233338 40.75 64.4375 C41.62269531 64.39818359 42.49539063 64.35886719 43.39453125 64.31835938 C44.23886719 64.27646484 45.08320313 64.23457031 45.953125 64.19140625 C46.72817383 64.15474854 47.50322266 64.11809082 48.30175781 64.08032227 C50.82722445 63.90033857 50.82722445 63.90033857 54.5 62.875 C54.83 50.995 55.16 39.115 55.5 26.875 C49.09093348 26.81101172 42.69375048 26.77467868 36.28613281 26.80786133 C34.10966374 26.81093361 31.93310961 26.7981238 29.75683594 26.76879883 C17.55840804 26.12280039 17.55840804 26.12280039 6.36254883 29.85961914 C4.38866142 32.10981903 2.97938131 34.28745814 1.5 36.875 C-2.17035154 40.27320348 -6.04189468 41.1218781 -10.9375 41.25 C-18.41251376 40.92277642 -24.35719439 39.94682913 -29.95703125 34.62890625 C-34.85826439 29.05763111 -36.13098803 23.78136486 -35.81640625 16.4140625 C-35.02830201 10.08976921 -31.05325935 5.12951609 -26.5 0.875 C-18.12467097 -5.15028945 -9.1004925 -4.09522162 0 0 Z " fill="#07B76B" transform="translate(220.5,144.125)"/>
<path d="M0 0 C22.11 0 44.22 0 67 0 C67 18.70338983 67 18.70338983 60 26 C58.06376135 28.45484803 56.22456555 30.97950771 54.375 33.5 C51.12892648 37.85529495 47.86140093 42.19261618 44.546875 46.49609375 C43.97533691 47.23859375 43.40379883 47.98109375 42.81494141 48.74609375 C41.72597953 50.15818879 40.63468415 51.5684889 39.54052734 52.9765625 C35.7692731 57.86874067 32.4477812 62.8283282 29 68 C42.53 68 56.06 68 70 68 C70 73.94 70 79.88 70 86 C46.9 86 23.8 86 0 86 C0 67.6392322 0 67.6392322 5.3125 61.875 C5.85503418 61.22233154 6.39756836 60.56966309 6.95654297 59.8972168 C8.07111113 58.5583422 9.2006654 57.23179398 10.34521484 55.91845703 C12.8867746 52.97192759 15.24439367 49.88916745 17.625 46.8125 C18.52602475 45.66823098 19.42835818 44.52499118 20.33203125 43.3828125 C23.00628515 39.99522852 25.66789479 36.59828512 28.3125 33.1875 C29.07175781 32.21167969 29.83101563 31.23585938 30.61328125 30.23046875 C33.5506933 26.25462626 36.25797868 22.11303198 39 18 C26.13 18 13.26 18 0 18 C0 12.06 0 6.12 0 0 Z " fill="#F9F9F8" transform="translate(335,274)"/>
<path d="M0 0 C7.26 0 14.52 0 22 0 C22 7.59 22 15.18 22 23 C29.26 23 36.52 23 44 23 C44 28.94 44 34.88 44 41 C36.74 41 29.48 41 22 41 C22.07410652 46.87230325 22.15703327 52.74311321 22.26245117 58.61474609 C22.29563713 60.61076029 22.32368868 62.60686689 22.34643555 64.60302734 C22.38009793 67.4779384 22.43241977 70.35200743 22.48828125 73.2265625 C22.49467117 74.11429352 22.5010611 75.00202454 22.50764465 75.91665649 C22.62741618 81.00190395 23.17091719 84.60077623 26 89 C29.73483616 92.03495204 32.57762241 92.34359487 37.3125 92.1875 C38.38113281 92.16042969 39.44976562 92.13335937 40.55078125 92.10546875 C41.76314453 92.05326172 41.76314453 92.05326172 43 92 C43.02684312 94.81256281 43.04676188 97.62487241 43.0625 100.4375 C43.07087891 101.23994141 43.07925781 102.04238281 43.08789062 102.86914062 C43.0965143 104.91295221 43.0522815 106.95683902 43 109 C40.4307429 111.5692571 33.50587303 110.33212835 30.0625 110.375 C28.40637695 110.43107422 28.40637695 110.43107422 26.71679688 110.48828125 C19.13186365 110.56892437 13.25961792 109.47241751 7 105 C2.27935875 99.9500661 -0.13017589 95.80404994 -0.11352539 88.79418945 C-0.11344986 87.73331619 -0.11337433 86.67244293 -0.11329651 85.579422 C-0.10813522 84.43559555 -0.10297394 83.2917691 -0.09765625 82.11328125 C-0.0962413 80.94113571 -0.09482635 79.76899017 -0.09336853 78.56132507 C-0.08776388 74.81169093 -0.07521056 71.06211615 -0.0625 67.3125 C-0.0574856 64.77278732 -0.05292259 62.2330737 -0.04882812 59.69335938 C-0.03779294 53.46221665 -0.02052515 47.2311184 0 41 C-4.62 41 -9.24 41 -14 41 C-14 35.06 -14 29.12 -14 23 C-9.38 23 -4.76 23 0 23 C0 15.41 0 7.82 0 0 Z " fill="#FBFBFB" transform="translate(278,251)"/>
<path d="M0 0 C7.26 0 14.52 0 22 0 C22 28.38 22 56.76 22 86 C14.74 86 7.48 86 0 86 C0 57.62 0 29.24 0 0 Z " fill="#F9F9F9" transform="translate(228,274)"/>
<path d="M0 0 C3.3086507 2.12566945 6.22368442 4.44736883 8 8 C8.61414839 12.25239453 8.92970361 16.28722388 6.8359375 20.14453125 C4.06703587 23.51691144 1.39271199 26.16329295 -3 27 C-7.5318855 27.13873119 -10.22026137 26.62379091 -13.8125 23.75 C-18.7688172 17.51920123 -18.7688172 17.51920123 -19.4375 13.125 C-18.66272166 7.59086903 -16.28920219 4.19925785 -12.3125 0.5 C-7.86470731 -1.5140948 -4.62470076 -1.54691031 0 0 Z " fill="#F8F8F8" transform="translate(244,235)"/>
<path d="M0 0 C0.02685938 2.14576637 0.04633088 4.29162645 0.0625 6.4375 C0.07410156 7.63246094 0.08570313 8.82742187 0.09765625 10.05859375 C0 13 0 13 -1 14 C-3.61638627 14.16155513 -6.20876008 14.26011083 -8.828125 14.31640625 C-9.63707214 14.33723267 -10.44601929 14.35805908 -11.27947998 14.3795166 C-13.93622035 14.44591456 -16.59306258 14.50456361 -19.25 14.5625 C-21.06770856 14.60537779 -22.88541689 14.6482652 -24.703125 14.69116211 C-39.80386794 15.03273612 -54.89574038 15.11822939 -70 15 C-69.97905273 16.01835937 -69.95810547 17.03671875 -69.93652344 18.0859375 C-69.86365316 21.89519976 -69.8180312 25.7044015 -69.78027344 29.51416016 C-69.76026429 31.1571695 -69.73304787 32.80010859 -69.69824219 34.44287109 C-69.64924695 36.81625788 -69.62692496 39.18869649 -69.609375 41.5625 C-69.58872986 42.28679199 -69.56808472 43.01108398 -69.54681396 43.75732422 C-69.54384917 50.62773704 -71.96899655 55.65653448 -76.4375 60.8125 C-83.6123736 66.9373921 -89.74174586 67.15043423 -98.8125 67.0625 C-99.69615234 67.05798828 -100.57980469 67.05347656 -101.49023438 67.04882812 C-103.66018559 67.03709866 -105.83010172 67.01916495 -108 67 C-108 62.38 -108 57.76 -108 53 C-106.66324219 52.93941406 -105.32648438 52.87882812 -103.94921875 52.81640625 C-102.19530179 52.73199313 -100.4413961 52.64734552 -98.6875 52.5625 C-97.80642578 52.52318359 -96.92535156 52.48386719 -96.01757812 52.44335938 C-95.17001953 52.40146484 -94.32246094 52.35957031 -93.44921875 52.31640625 C-92.27879028 52.26141968 -92.27879028 52.26141968 -91.0847168 52.20532227 C-88.80670899 52.05874737 -88.80670899 52.05874737 -86 51 C-87 54 -87 54 -89 55 C-91.71760108 55.07181821 -94.40859388 55.09299506 -97.125 55.0625 C-97.87910156 55.05798828 -98.63320313 55.05347656 -99.41015625 55.04882812 C-101.27347127 55.03703499 -103.13674555 55.01909942 -105 55 C-105 57.97 -105 60.94 -105 64 C-96.13952028 64.24650485 -88.41302045 63.80434015 -80 61 C-80 60.34 -80 59.68 -80 59 C-79.01 59 -78.02 59 -77 59 C-77 57.68 -77 56.36 -77 55 C-76.34 55 -75.68 55 -75 55 C-75 54.34 -75 53.68 -75 53 C-74.34 53 -73.68 53 -73 53 C-73.00523682 51.89487061 -73.01047363 50.78974121 -73.01586914 49.65112305 C-73.03396215 45.55298675 -73.04544778 41.45485398 -73.05493164 37.35668945 C-73.059962 35.58259487 -73.06678699 33.80850444 -73.07543945 32.03442383 C-73.08756174 29.48517839 -73.09324126 26.93598774 -73.09765625 24.38671875 C-73.10281754 23.59287277 -73.10797882 22.79902679 -73.11329651 21.98112488 C-73.11362877 18.72343714 -73.03772826 16.11318479 -72 13 C-65.35371766 10.12544211 -58.09429378 10.64930626 -50.97265625 10.5859375 C-49.61501418 10.56720246 -48.25738346 10.54762734 -46.89976501 10.5272522 C-43.34726696 10.47617133 -39.79473125 10.43641798 -36.24206543 10.39910889 C-32.60854971 10.35891738 -28.97518735 10.30789458 -25.34179688 10.2578125 C-18.22797719 10.16133854 -11.11406104 10.07684359 -4 10 C-4.34564651 7.53907826 -4.34564651 7.53907826 -5 5 C-9.13779893 2.3807331 -14.05000876 2.56661742 -18.8125 2.375 C-19.99489258 2.31699219 -19.99489258 2.31699219 -21.20117188 2.2578125 C-23.1337538 2.16411156 -25.06684376 2.08099221 -27 2 C-27 1.67 -27 1.34 -27 1 C-23.06254264 0.83231578 -19.12502757 0.6660268 -15.1875 0.5 C-14.06794922 0.45230469 -12.94839844 0.40460938 -11.79492188 0.35546875 C-10.72177734 0.31035156 -9.64863281 0.26523438 -8.54296875 0.21875 C-7.55321045 0.17685547 -6.56345215 0.13496094 -5.54370117 0.09179688 C-3.69674974 0.02514425 -1.84815371 0 0 0 Z " fill="#18B86D" transform="translate(360,156)"/>
<path d="M0 0 C1.32 0 2.64 0 4 0 C4 0.99 4 1.98 4 3 C4.99309913 2.99723462 4.99309913 2.99723462 6.00626087 2.99441338 C22.10519833 2.95027208 38.20411479 2.91716184 54.30309772 2.89637566 C62.08839909 2.88605681 69.87366009 2.87198488 77.65893555 2.84912109 C84.44345173 2.82920581 91.2279387 2.81628799 98.0124833 2.81182301 C101.60587092 2.80921246 105.19917492 2.80306399 108.79253578 2.78853989 C112.80093747 2.77246918 116.80919317 2.77201911 120.81762695 2.77294922 C122.0130864 2.76575867 123.20854584 2.75856812 124.44023132 2.75115967 C126.07455612 2.75528366 126.07455612 2.75528366 127.74189758 2.75949097 C128.69042256 2.75764738 129.63894754 2.75580379 130.61621571 2.75390434 C133 3 133 3 136 5 C135.34 8.96 134.68 12.92 134 17 C133.67 17 133.34 17 133 17 C133 13.37 133 9.74 133 6 C90.1 6 47.2 6 3 6 C2.01 4.02 1.02 2.04 0 0 Z " fill="#052A18" transform="translate(227,150)"/>
<path d="M0 0 C2.92937654 1.81310142 5.43647949 3.87295899 7 7 C7.375 10.3125 7.375 10.3125 7 14 C4.54905772 16.98087575 2.20472002 18.86351998 -1 21 C-5.5979179 21 -7.47731852 20.46707706 -10.9375 17.375 C-13.37307556 13.38951272 -13.81887423 11.58569566 -13 7 C-9.66021505 1.52373497 -6.45056446 -0.7442959 0 0 Z " fill="#020E07" transform="translate(211,153)"/>
<path d="M0 0 C1.01376709 0.00427002 2.02753418 0.00854004 3.07202148 0.01293945 C4.6915271 0.0452063 4.6915271 0.0452063 6.34375 0.078125 C8.00289429 0.09782349 8.00289429 0.09782349 9.69555664 0.11791992 C13.07903418 0.1676948 16.46096119 0.24423779 19.84375 0.328125 C20.86581543 0.34891113 21.88788086 0.36969727 22.94091797 0.39111328 C25.72215597 0.45368071 28.50113211 0.5405985 31.28125 0.640625 C32.54001953 0.67397949 32.54001953 0.67397949 33.82421875 0.70800781 C36.15234375 0.81640625 36.15234375 0.81640625 39.84375 1.328125 C42.1498176 4.7872264 42.04152656 5.87031926 41.85546875 9.9140625 C41.80841797 11.00976562 41.76136719 12.10546875 41.71289062 13.234375 C41.65294922 14.3790625 41.59300781 15.52375 41.53125 16.703125 C41.48291016 17.84007812 41.43457031 18.97703125 41.38476562 20.1484375 C41.16071718 24.98107743 40.89874601 29.59607002 39.84375 34.328125 C39.51375 34.328125 39.18375 34.328125 38.84375 34.328125 C38.84375 24.428125 38.84375 14.528125 38.84375 4.328125 C32.43468348 4.26413672 26.03750048 4.22780368 19.62988281 4.26098633 C17.45341374 4.26405861 15.27685961 4.2512488 13.10058594 4.22192383 C0.90215804 3.57592539 0.90215804 3.57592539 -10.29370117 7.31274414 C-12.26758858 9.56294403 -13.67686869 11.74058314 -15.15625 14.328125 C-18.82660154 17.72632848 -22.69814468 18.5750031 -27.59375 18.703125 C-33.0219832 18.486593 -38.7947191 18.24686886 -43.15625 14.703125 C-43.48625 14.249375 -43.81625 13.795625 -44.15625 13.328125 C-38.48806818 14.25085227 -38.48806818 14.25085227 -35.875 14.859375 C-32.6551143 15.41452771 -29.60945562 15.42361193 -26.34375 15.390625 C-24.60158203 15.37708984 -24.60158203 15.37708984 -22.82421875 15.36328125 C-21.94378906 15.35167969 -21.06335938 15.34007812 -20.15625 15.328125 C-19.82625 14.338125 -19.49625 13.348125 -19.15625 12.328125 C-18.16625 12.328125 -17.17625 12.328125 -16.15625 12.328125 C-16.15625 11.668125 -16.15625 11.008125 -16.15625 10.328125 C-15.16625 9.998125 -14.17625 9.668125 -13.15625 9.328125 C-11.81293346 7.33481658 -10.48030988 5.33427634 -9.15625 3.328125 C-6.10644629 0.50087453 -4.12254859 -0.04285086 0 0 Z " fill="#24965F" transform="translate(237.15625,166.671875)"/>
<path d="M0 0 C10.23 0.33 20.46 0.66 31 1 C31 1.33 31 1.66 31 2 C21.43 2 11.86 2 2 2 C2.04640625 4.43375 2.0928125 6.8675 2.140625 9.375 C2.17189691 11.75469888 2.19614097 14.13437412 2.21972656 16.51416016 C2.23973571 18.1571695 2.26695213 19.80010859 2.30175781 21.44287109 C2.35075305 23.81625788 2.37307504 26.18869649 2.390625 28.5625 C2.41127014 29.28679199 2.43191528 30.01108398 2.45318604 30.75732422 C2.45615083 37.62773704 0.03100345 42.65653448 -4.4375 47.8125 C-11.6123736 53.9373921 -17.74174586 54.15043423 -26.8125 54.0625 C-28.13797852 54.05573242 -28.13797852 54.05573242 -29.49023438 54.04882812 C-31.66018559 54.03709866 -33.83010172 54.01916495 -36 54 C-36 49.38 -36 44.76 -36 40 C-34.66324219 39.93941406 -33.32648438 39.87882812 -31.94921875 39.81640625 C-30.19530179 39.73199313 -28.4413961 39.64734552 -26.6875 39.5625 C-25.80642578 39.52318359 -24.92535156 39.48386719 -24.01757812 39.44335938 C-23.17001953 39.40146484 -22.32246094 39.35957031 -21.44921875 39.31640625 C-20.27879028 39.26141968 -20.27879028 39.26141968 -19.0847168 39.20532227 C-16.80670899 39.05874737 -16.80670899 39.05874737 -14 38 C-15 41 -15 41 -17 42 C-19.71760108 42.07181821 -22.40859388 42.09299506 -25.125 42.0625 C-25.87910156 42.05798828 -26.63320313 42.05347656 -27.41015625 42.04882812 C-29.27347127 42.03703499 -31.13674555 42.01909942 -33 42 C-33 44.97 -33 47.94 -33 51 C-24.13952028 51.24650485 -16.41302045 50.80434015 -8 48 C-8 47.34 -8 46.68 -8 46 C-7.01 46 -6.02 46 -5 46 C-5 44.68 -5 43.36 -5 42 C-4.34 42 -3.68 42 -3 42 C-3 41.34 -3 40.68 -3 40 C-2.34 40 -1.68 40 -1 40 C-1.00523682 38.89487061 -1.01047363 37.78974121 -1.01586914 36.65112305 C-1.03396215 32.55298675 -1.04544778 28.45485398 -1.05493164 24.35668945 C-1.059962 22.58259487 -1.06678699 20.80850444 -1.07543945 19.03442383 C-1.08756174 16.48517839 -1.09324126 13.93598774 -1.09765625 11.38671875 C-1.10281754 10.59287277 -1.10797882 9.79902679 -1.11329651 8.98112488 C-1.11362877 5.72343714 -1.03772826 3.11318479 0 0 Z " fill="#2A9F6C" transform="translate(288,169)"/>
<path d="M0 0 C0.99 0.495 0.99 0.495 2 1 C2 1.66 2 2.32 2 3 C43.91 3 85.82 3 129 3 C129 3.33 129 3.66 129 4 C126.69 4.33 124.38 4.66 122 5 C122 5.33 122 5.66 122 6 C106.80299312 6.02934032 91.61013096 5.94516617 76.4140625 5.78125 C74.24832256 5.75873039 72.08258157 5.73631216 69.9168396 5.71398926 C64.29798311 5.65580893 58.67914175 5.59627921 53.06030273 5.53643799 C47.29411682 5.4752765 41.52791722 5.41543325 35.76171875 5.35546875 C24.50779898 5.23824661 13.2538948 5.11959444 2 5 C1.34 3.35 0.68 1.7 0 0 Z " fill="#1DAC6F" transform="translate(228,153)"/>
<path d="M0 0 C1.5 3.25 1.5 3.25 2 6 C1.0925 5.21625 0.185 4.4325 -0.75 3.625 C-5.03746381 0.07882667 -8.40674351 -1.36680115 -14 -2 C-14.68320313 -2.07734375 -15.36640625 -2.1546875 -16.0703125 -2.234375 C-22.48220613 -2.63651467 -26.9228971 -0.89371801 -32 3 C-37.78898474 8.24472122 -38.84472894 13.73522512 -39.578125 21.33984375 C-39.78695312 22.65662109 -39.78695312 22.65662109 -40 24 C-40.66 24.33 -41.32 24.66 -42 25 C-42.43895497 16.00955196 -41.59739249 9.99738931 -35.8125 2.8125 C-30.88207358 -2.53224797 -25.28313381 -5.45193655 -18 -6.03515625 C-11.80446841 -5.92625042 -4.9757378 -3.71394783 0 0 Z " fill="#01190A" transform="translate(225,144)"/>
<path d="M0 0 C0.83272934 0.00222061 1.66545868 0.00444122 2.52342224 0.00672913 C3.46432205 0.00680466 4.40522186 0.00688019 5.37463379 0.00695801 C6.39754013 0.01211929 7.42044647 0.01728058 8.47434998 0.02259827 C9.51614914 0.02401321 10.5579483 0.02542816 11.63131714 0.02688599 C14.97355467 0.03250372 18.31572629 0.04505922 21.65794373 0.05775452 C23.91770839 0.06276723 26.17747409 0.06733053 28.4372406 0.07142639 C33.98999763 0.08247891 39.54271597 0.09923428 45.09544373 0.12025452 C45.09544373 0.45025452 45.09544373 0.78025452 45.09544373 1.12025452 C43.77939148 1.09817932 42.46333923 1.07610413 41.10740662 1.05335999 C36.19240233 0.9842693 31.27915411 0.98155386 26.36375427 0.9981842 C24.24256846 0.99624572 22.12131851 0.9766589 20.00047302 0.93861389 C7.82798698 0.31197572 7.82798698 0.31197572 -3.23561096 4.32972717 C-5.45182664 6.82060206 -7.15565996 9.29354667 -8.90455627 12.12025452 C-12.5878002 15.53728538 -16.42059546 16.35986357 -21.34205627 16.49525452 C-26.77028947 16.27872252 -32.54302537 16.03899837 -36.90455627 12.49525452 C-37.23455627 12.04150452 -37.56455627 11.58775452 -37.90455627 11.12025452 C-32.23637446 12.04298179 -32.23637446 12.04298179 -29.62330627 12.65150452 C-26.40342058 13.20665722 -23.35776189 13.21574144 -20.09205627 13.18275452 C-18.34988831 13.16921936 -18.34988831 13.16921936 -16.57252502 13.15541077 C-15.69209534 13.1438092 -14.81166565 13.13220764 -13.90455627 13.12025452 C-13.57455627 12.13025452 -13.24455627 11.14025452 -12.90455627 10.12025452 C-11.91455627 10.12025452 -10.92455627 10.12025452 -9.90455627 10.12025452 C-9.90455627 9.46025452 -9.90455627 8.80025452 -9.90455627 8.12025452 C-8.91455627 7.79025452 -7.92455627 7.46025452 -6.90455627 7.12025452 C-5.5151755 5.15877578 -4.17851518 3.15858876 -2.90455627 1.12025452 C-1.90455627 0.12025452 -1.90455627 0.12025452 0 0 Z " fill="#30A876" transform="translate(230.90455627441406,168.87974548339844)"/>
<path d="M0 0 C0 0.33 0 0.66 0 1 C-1.27875 1.144375 -2.5575 1.28875 -3.875 1.4375 C-11.01164734 2.9845264 -16.46263268 8.50963087 -20.6640625 14.2890625 C-21.10492188 14.85367188 -21.54578125 15.41828125 -22 16 C-22.66 16 -23.32 16 -24 16 C-23.91227545 17.89666526 -23.80408699 19.79238993 -23.6875 21.6875 C-23.62949219 22.74324219 -23.57148438 23.79898438 -23.51171875 24.88671875 C-22.95905757 28.2490925 -21.80742503 30.15560725 -20 33 C-20 33.99 -20 34.98 -20 36 C-19.01 36.33 -18.02 36.66 -17 37 C-17.66 37.66 -18.32 38.32 -19 39 C-24.40122907 32.66752454 -26.55129194 27.9356682 -26.28125 19.609375 C-25.59579814 13.24990495 -21.56154736 8.26226031 -17 4 C-11.5449685 0.0755997 -6.59481578 -0.54956798 0 0 Z " fill="#1E925B" transform="translate(211,141)"/>
<path d="M0 0 C0.99 0 1.98 0 3 0 C3.02685938 2.14576637 3.04633088 4.29162645 3.0625 6.4375 C3.07410156 7.63246094 3.08570313 8.82742187 3.09765625 10.05859375 C3 13 3 13 2 14 C-0.14743549 14.09425595 -2.29801026 14.11742648 -4.44750977 14.11352539 C-5.45722336 14.11374443 -5.45722336 14.11374443 -6.48733521 14.1139679 C-8.72205784 14.11326878 -10.9566981 14.10547652 -13.19140625 14.09765625 C-14.73697362 14.09579206 -16.28254157 14.09436816 -17.82810974 14.09336853 C-21.90357077 14.0895434 -25.97899637 14.07971317 -30.05444336 14.06866455 C-34.21011882 14.05845032 -38.36579999 14.05387089 -42.52148438 14.04882812 C-50.68100587 14.03809089 -58.84049853 14.02101454 -67 14 C-67 13.67 -67 13.34 -67 13 C-66.17536758 12.98969254 -65.35073517 12.97938507 -64.50111389 12.96876526 C-56.74594316 12.8709612 -48.99085547 12.76847166 -41.23581791 12.66066074 C-37.24846784 12.60539527 -33.26111048 12.55196963 -29.27368164 12.50268555 C-25.42868399 12.45509524 -21.58377818 12.40275464 -17.73888969 12.34705925 C-16.26883658 12.32661143 -14.79875826 12.30790244 -13.32866096 12.29092598 C-11.27638724 12.26693536 -9.22428853 12.2368741 -7.17211914 12.20532227 C-6.00185684 12.18977798 -4.83159454 12.1742337 -3.62586975 12.15821838 C-1.0747474 12.29584674 -1.0747474 12.29584674 0 11 C0.07226502 9.14712498 0.0838122 7.29166122 0.0625 5.4375 C0.05347656 4.42558594 0.04445313 3.41367188 0.03515625 2.37109375 C0.02355469 1.58863281 0.01195312 0.80617187 0 0 Z " fill="#41B37C" transform="translate(357,156)"/>
<path d="M0 0 C8.77342419 -0.76660988 8.77342419 -0.76660988 13 1.875 C15.68469854 6.06984148 16.36408203 10.11197385 17 15 C16.01 15.495 16.01 15.495 15 16 C14.91363281 15.39671875 14.82726562 14.7934375 14.73828125 14.171875 C14.0242854 10.11061422 13.51871504 7.5907588 10.75 4.4375 C7.43277554 2.70349631 5.69301395 2.38449768 2 3 C-0.69990662 4.79993774 -2.5418865 6.083773 -4 9 C-4.22622081 10.70363822 -4.40888473 12.41328701 -4.5625 14.125 C-4.68818359 15.49011719 -4.68818359 15.49011719 -4.81640625 16.8828125 C-4.87699219 17.58148438 -4.93757812 18.28015625 -5 19 C-7.9453125 16.2734375 -7.9453125 16.2734375 -8.4375 13.8125 C-7.8193598 9.83874158 -6.30791376 6.30363575 -4 3 C-3.01 2.67 -2.02 2.34 -1 2 C-0.67 1.34 -0.34 0.68 0 0 Z " fill="#2A9F6D" transform="translate(203,151)"/>
<path d="M0 0 C3.97915159 -0.02886984 7.95827653 -0.04675406 11.9375 -0.0625 C13.07380859 -0.07087891 14.21011719 -0.07925781 15.38085938 -0.08789062 C16.46044922 -0.09111328 17.54003906 -0.09433594 18.65234375 -0.09765625 C20.15269165 -0.10551147 20.15269165 -0.10551147 21.68334961 -0.11352539 C24 0 24 0 25 1 C25.16796875 2.99609375 25.16796875 2.99609375 25.1875 5.4375 C25.20167969 6.24058594 25.21585937 7.04367188 25.23046875 7.87109375 C25 10 25 10 23 12 C20.47802734 12.22705078 20.47802734 12.22705078 17.3359375 12.1953125 C16.21445312 12.18886719 15.09296875 12.18242187 13.9375 12.17578125 C12.761875 12.15902344 11.58625 12.14226562 10.375 12.125 C8.59996094 12.11146484 8.59996094 12.11146484 6.7890625 12.09765625 C3.85917477 12.07402812 0.9296866 12.04108514 -2 12 C-2 11.67 -2 11.34 -2 11 C-1.31373535 10.97494385 -0.6274707 10.9498877 0.07958984 10.92407227 C3.17825817 10.80828573 6.27660923 10.68548115 9.375 10.5625 C10.45523437 10.52318359 11.53546875 10.48386719 12.6484375 10.44335938 C14.1953125 10.38051758 14.1953125 10.38051758 15.7734375 10.31640625 C16.72653809 10.27974854 17.67963867 10.24309082 18.66162109 10.20532227 C21.02132349 10.14236535 21.02132349 10.14236535 23 9 C22.89386164 6.54775306 22.89386164 6.54775306 22 4 C17.64269524 1.54901607 13.06100819 1.57108415 8.1875 1.375 C7.00510742 1.31699219 7.00510742 1.31699219 5.79882812 1.2578125 C3.8662462 1.16411156 1.93315624 1.08099221 0 1 C0 0.67 0 0.34 0 0 Z " fill="#23C181" transform="translate(333,157)"/>
<path d="M0 0 C0.33 0 0.66 0 1 0 C1.19339657 4.85593561 1.37192893 9.71211436 1.53710938 14.5690918 C1.59526653 16.21897789 1.65738063 17.86872969 1.72363281 19.51831055 C1.81853113 21.89867678 1.89887062 24.27917362 1.9765625 26.66015625 C2.00875885 27.38960953 2.0409552 28.11906281 2.0741272 28.87062073 C2.21207476 33.65901278 1.52821246 37.45448067 0 42 C-0.99 42 -1.98 42 -3 42 C-2.67854004 41.01700928 -2.35708008 40.03401855 -2.02587891 39.02124023 C-0.84756859 34.88079412 -0.65379295 30.94519564 -0.5859375 26.66015625 C-0.56657135 25.89319931 -0.5472052 25.12624237 -0.5272522 24.33604431 C-0.46797442 21.91163894 -0.42128089 19.48718472 -0.375 17.0625 C-0.33677238 15.40818362 -0.29771794 13.75388613 -0.2578125 12.09960938 C-0.16231637 8.06656156 -0.07809693 4.03342073 0 0 Z " fill="#083523" transform="translate(290,171)"/>
<path d="M0 0 C4.25629282 0.4856874 6.10090154 1.45184972 9.18359375 4.36328125 C9.51359375 5.02328125 9.84359375 5.68328125 10.18359375 6.36328125 C6.37110468 5.69048906 2.85181597 4.58602199 -0.81640625 3.36328125 C-3.50895616 2.65657397 -3.50895616 2.65657397 -5.81640625 2.36328125 C-6.14640625 2.69328125 -6.47640625 3.02328125 -6.81640625 3.36328125 C-8.81598989 3.40408908 -10.81685879 3.40582481 -12.81640625 3.36328125 C-9.5017257 -1.0523886 -5.07442579 -0.10748505 0 0 Z " fill="#17B371" transform="translate(213.81640625,141.63671875)"/>
<path d="M0 0 C0.33 0 0.66 0 1 0 C1.05869332 3.49992803 1.09382709 6.9997272 1.125 10.5 C1.14175781 11.48226562 1.15851563 12.46453125 1.17578125 13.4765625 C1.21475587 19.32275484 1.01470523 24.4753995 -1 30 C-3.125 31.5 -3.125 31.5 -5 32 C-4.79503906 31.40832031 -4.59007812 30.81664062 -4.37890625 30.20703125 C-4.10949219 29.41683594 -3.84007812 28.62664062 -3.5625 27.8125 C-3.29566406 27.03519531 -3.02882813 26.25789063 -2.75390625 25.45703125 C-1.0458302 19.89029636 -0.71591397 14.47029504 -0.4375 8.6875 C-0.37272461 7.43356445 -0.37272461 7.43356445 -0.30664062 6.15429688 C-0.20114693 4.10303065 -0.10012685 2.0515352 0 0 Z " fill="#17B66E" transform="translate(278,178)"/>
<path d="M0 0 C0.99 0 1.98 0 3 0 C3.02685938 2.14576637 3.04633088 4.29162645 3.0625 6.4375 C3.07410156 7.63246094 3.08570313 8.82742187 3.09765625 10.05859375 C3 13 3 13 2 14 C-0.35313555 14.07271741 -2.70833668 14.08370868 -5.0625 14.0625 C-6.35285156 14.05347656 -7.64320313 14.04445312 -8.97265625 14.03515625 C-9.97167969 14.02355469 -10.97070312 14.01195312 -12 14 C-12 13.67 -12 13.34 -12 13 C-11.21753906 12.93941406 -10.43507813 12.87882813 -9.62890625 12.81640625 C-8.61699219 12.73261719 -7.60507812 12.64882812 -6.5625 12.5625 C-5.55316406 12.48128906 -4.54382813 12.40007812 -3.50390625 12.31640625 C-1.06359221 12.26788532 -1.06359221 12.26788532 0 11 C0.07226502 9.14712498 0.0838122 7.29166122 0.0625 5.4375 C0.05347656 4.42558594 0.04445313 3.41367188 0.03515625 2.37109375 C0.02355469 1.58863281 0.01195312 0.80617187 0 0 Z " fill="#46B487" transform="translate(357,156)"/>
<path d="M0 0 C2.54405638 0.06042889 5.08256731 0.14759028 7.625 0.25 C8.33785156 0.26417969 9.05070313 0.27835938 9.78515625 0.29296875 C14.88427128 0.52687311 17.97060496 1.61729799 22 5 C22.875 7.75 22.875 7.75 23 10 C21.56770833 8.76302083 20.13541667 7.52604167 18.703125 6.2890625 C14.7468332 3.29462146 11.14789155 2.56070482 6.25 1.875 C5.07953125 1.70742187 3.9090625 1.53984375 2.703125 1.3671875 C1.36507812 1.18542969 1.36507812 1.18542969 0 1 C0 0.67 0 0.34 0 0 Z " fill="#032D15" transform="translate(204,140)"/>
<path d="M0 0 C2.91664086 0.23648439 4.73607003 0.8265603 7.1875 2.4375 C9.90088577 6.27366608 10.33458524 10.41214035 11 15 C10.01 15.495 10.01 15.495 9 16 C8.91363281 15.39671875 8.82726562 14.7934375 8.73828125 14.171875 C7.81381755 8.81414478 7.81381755 8.81414478 4.5625 4.5625 C3.716875 4.046875 2.87125 3.53125 2 3 C1.01 2.34 0.02 1.68 -1 1 C-0.67 0.67 -0.34 0.34 0 0 Z " fill="#1B9860" transform="translate(209,151)"/>
<path d="M0 0 C0.33 0 0.66 0 1 0 C1.03738281 0.66386719 1.07476562 1.32773438 1.11328125 2.01171875 C1.49770996 7.17512397 1.97600459 10.66122397 5 15 C5 15.99 5 16.98 5 18 C5.99 18.33 6.98 18.66 8 19 C7.34 19.66 6.68 20.32 6 21 C1.59236916 15.71084299 -0.27667871 12.72722069 -0.125 5.75 C-0.10695312 4.67234375 -0.08890625 3.5946875 -0.0703125 2.484375 C-0.04710937 1.66453125 -0.02390625 0.8446875 0 0 Z " fill="#2F9D72" transform="translate(186,159)"/>
<path d="M0 0 C3.95371299 0.56481614 6.71675094 1.71996593 10 4 C10.33 4.66 10.66 5.32 11 6 C6.48986609 5.46939601 3.61621781 3.69113883 0 1 C0 0.67 0 0.34 0 0 Z " fill="#1F9A63" transform="translate(213,142)"/>
<path d="M0 0 C0.33 0.99 0.66 1.98 1 3 C-0.75 5.0625 -0.75 5.0625 -3 7 C-5.25 6.75 -5.25 6.75 -7 6 C-6.21625 5.566875 -5.4325 5.13375 -4.625 4.6875 C-1.78301625 3.10779753 -1.78301625 3.10779753 0 0 Z " fill="#1D956A" transform="translate(217,167)"/>
<path d="M0 0 C2.64 0 5.28 0 8 0 C8 0.66 8 1.32 8 2 C5.39417629 2.93065133 4.35801776 3.14917407 1.75 2.0625 C1.1725 1.711875 0.595 1.36125 0 1 C0 0.67 0 0.34 0 0 Z " fill="#16B680" transform="translate(203,174)"/>
<path d="M0 0 C0.33 0 0.66 0 1 0 C1.33 2.97 1.66 5.94 2 9 C-1 6 -1 6 -1.25 3.375 C-1 1 -1 1 0 0 Z " fill="#31BE86" transform="translate(196,161)"/>
</svg>
